HIERARCHY
ROOT hip
{
	OFFSET 0.000000 0.000000 0.000000 
	CHANNELS 6 Xposition Yposition Zposition Xrotation Zrotation Yrotation
	JOINT abdomen
	{
		OFFSET 0.000000 3.402643 0.000000 
		CHANNELS 3 Xrotation Zrotation Yrotation
		JOINT chest
		{
			OFFSET 0.000000 8.438565 -0.680529 
			CHANNELS 3 Xrotation Zrotation Yrotation
			JOINT neck
			{
				OFFSET 0.000000 10.207942 -0.272212 
				CHANNELS 3 Xrotation Zrotation Yrotation
				JOINT head
				{
					OFFSET 0.000000 3.130431 0.000000 
					CHANNELS 3 Xrotation Zrotation Yrotation
					End Site
					{
						OFFSET 0.000000 3.130435 0.000000 
					}
				}
			}
			JOINT lCollar
			{
				OFFSET 3.470700 6.669187 -0.816635 
				CHANNELS 3 Yrotation Zrotation Xrotation
				JOINT lShldr
				{
					OFFSET 3.198488 0.000000 0.000000 
					CHANNELS 3 Zrotation Yrotation Xrotation
					JOINT lForeArm
					{
						OFFSET 10.139888 0.000000 0.000000 
						CHANNELS 3 Yrotation Zrotation Xrotation
						JOINT lHand
						{
							OFFSET 8.370511 0.000000 0.000000 
							CHANNELS 3 Zrotation Yrotation Xrotation
							End Site
							{
								OFFSET 4.083176 0.000000 0.000000 
							}
						}
					}
				}
			}
			JOINT rCollar
			{
				OFFSET -3.470700 6.669187 -0.816635 
				CHANNELS 3 Yrotation Zrotation Xrotation
				JOINT rShldr
				{
					OFFSET -3.198488 0.000000 0.000000 
					CHANNELS 3 Zrotation Yrotation Xrotation
					JOINT rForeArm
					{
						OFFSET -10.139888 0.000000 0.000000 
						CHANNELS 3 Yrotation Zrotation Xrotation
						JOINT rHand
						{
							OFFSET -8.370511 0.000000 0.000000 
							CHANNELS 3 Zrotation Yrotation Xrotation
							End Site
							{
								OFFSET -4.083176 0.000000 0.000000 
							}
						}
					}
				}
			}
		}
	}
	JOINT lThigh
	{
		OFFSET 5.308129 -1.633274 1.361059 
		CHANNELS 3 Xrotation Zrotation Yrotation
		JOINT lShin
		{
			OFFSET -2.041588 -20.007561 0.000000 
			CHANNELS 3 Xrotation Zrotation Yrotation
			JOINT lFoot
			{
				OFFSET 0.000000 -19.190928 -1.224953 
				CHANNELS 3 Xrotation Yrotation Zrotation
				End Site
				{
					OFFSET 0.000000 -2.449906 4.627600 
				}
			}
		}
	}
	JOINT rThigh
	{
		OFFSET -5.308129 -1.633274 1.361059 
		CHANNELS 3 Xrotation Zrotation Yrotation
		JOINT rShin
		{
			OFFSET 2.041588 -20.007561 0.000000 
			CHANNELS 3 Xrotation Zrotation Yrotation
			JOINT rFoot
			{
				OFFSET 0.000000 -19.190928 -1.224953 
				CHANNELS 3 Xrotation Yrotation Zrotation
				End Site
				{
					OFFSET 0.000000 -2.449906 4.627600 
				}
			}
		}
	}
}
MOTION
Frames: 15
Frame Time: 0.033333
0.309545 52.309486 0.450026 177.187515 -179.843750 -7.753932 27.235609 -9.600540 -4.731396 -24.687500 11.064454 6.640625 51.063168 8.107644 2.471410 -36.123047 -4.121427 -9.716486 2.000000 -2.000000 0.000000 -87.392578 5.595703 6.797827 -43.900040 -2.143443 -1.748878 -11.648459 49.772434 -17.983597 -2.000000 2.000000 0.000000 88.007813 -3.916016 -51.113949 110.230446 -1.458175 -3.063602 19.915169 -61.290424 -27.355976 3.660423 11.960914 11.964376 9.297970 -5.201733 -1.023547 -6.240923 3.165980 -8.231564 2.457930 -10.599352 -19.471771 10.699995 4.741255 0.862246 -3.788113 -2.632456 6.645613 
0.584549 52.388271 0.911853 -2.988281 0.000000 170.507813 28.199617 -9.638577 -5.381728 -24.345703 10.527343 6.474609 51.063168 8.107644 2.471410 -35.234379 -4.189453 -9.423830 2.000000 -2.000000 0.000000 -86.005859 3.437500 5.586523 -44.603992 -2.125654 -1.779254 -12.808374 49.359432 -19.742735 -2.000000 2.000000 0.000000 87.470703 -5.429688 -50.185551 112.520393 -1.370602 -3.224531 14.220285 -63.236240 -21.740286 3.552246 12.407626 12.886349 8.955345 -5.191322 -0.994349 -5.771842 3.644786 -8.811326 1.676388 -10.011332 -18.318624 10.695632 5.080981 0.917038 -3.179494 -2.307638 6.283057 
0.849191 52.451286 1.402889 -3.173828 0.166016 168.906265 29.356239 -9.673433 -6.041179 -24.003908 9.980468 6.132813 51.063168 8.107644 2.471410 -34.521484 -4.052734 -9.082722 2.000000 -2.000000 0.000000 -84.833984 0.888672 5.146637 -45.136337 -2.009167 -1.962084 -14.601294 48.440628 -21.961628 -2.000000 2.000000 0.000000 87.197266 -7.509766 -49.444637 114.814621 -1.469222 -3.210661 9.751771 -64.703232 -17.366722 2.753536 12.754068 13.862184 9.830341 -4.968392 -1.042128 -5.656104 4.225158 -9.251745 0.535721 -9.653440 -17.155695 11.061190 5.083505 0.947118 -3.176063 -1.887483 5.315072 
1.087543 52.490681 1.910646 -3.525390 0.166016 167.148468 30.529341 -9.609673 -6.879045 -23.486330 9.619141 6.005860 51.063168 8.107644 2.471410 -33.642578 -3.945312 -8.564453 2.000000 -2.000000 0.000000 -83.896484 -1.992188 4.648098 -45.663967 -1.999987 -1.972400 -16.661421 47.227306 -24.297985 -2.000000 2.000000 0.000000 87.343750 -10.078124 -48.955078 117.455742 -1.567673 -3.030821 4.555929 -65.444916 -12.368404 2.936794 13.403262 14.993513 9.825401 -5.074926 -0.873986 -5.866713 4.740621 -9.974745 -0.704121 -8.941431 -15.957336 11.061731 5.083577 0.927640 -2.753765 -1.161640 4.945532 
1.311346 52.506439 2.434024 -3.720703 0.341797 165.556717 31.678339 -9.625869 -7.559131 -23.144531 9.091797 5.664063 51.063168 8.107644 2.471410 -32.929695 -3.994141 -8.261720 2.000000 -2.000000 0.000000 -83.085938 -4.912109 4.277344 -46.011906 -2.090077 -1.840008 -19.031784 45.682865 -26.564772 -2.000000 2.000000 0.000000 87.578125 -13.173827 -48.879177 119.915718 -1.657108 -3.006658 -0.756609 -65.261024 -7.153082 2.252542 13.673949 16.206650 9.810072 -5.008777 -1.043259 -5.174511 5.138935 -10.203552 -1.835905 -8.571265 -14.316474 11.200146 5.114627 0.512851 -2.521378 -0.935054 4.340322 
1.522819 52.522198 2.963975 -3.876953 0.507813 163.789078 32.823509 -9.393031 -8.321166 -22.636721 8.544923 5.507813 51.063168 8.107644 2.471410 -32.226559 -4.042969 -7.608111 2.000000 -2.000000 0.000000 -82.138672 -7.666016 4.052734 -46.364273 -2.082036 -1.869814 -21.700848 44.170593 -29.208364 -2.000000 2.000000 0.000000 87.851563 -16.347654 -48.603512 122.526314 -2.117428 -2.828289 -3.021704 -65.478439 -4.223126 1.852234 14.328603 18.109898 10.351818 -4.947961 -1.083745 -5.191997 4.992348 -10.085196 -3.026956 -8.033819 -13.521710 11.374865 5.077081 0.982214 -2.240611 -0.841094 3.787061 
1.716114 52.522198 3.505696 -4.052734 0.507813 162.031357 33.965969 -9.406699 -9.010310 -22.285156 8.173828 5.341797 51.063168 8.107644 2.471410 -31.718756 -4.238281 -7.001954 2.000000 -2.000000 0.000000 -81.845703 -10.195313 4.150391 -46.540077 -2.072287 -1.870384 -23.874773 42.847443 -31.768873 -2.000000 2.000000 0.000000 88.632813 -18.798826 -49.277348 124.629616 -2.168018 -2.967747 -2.448988 -65.887375 -3.033546 1.649378 15.193018 19.774042 10.514434 -4.829551 -1.087749 -4.942197 5.159177 -10.632895 -4.226038 -7.287591 -12.055282 11.748006 5.078019 1.013011 -1.787732 -0.560017 3.370862 
1.928594 52.514320 4.055862 -4.238281 0.683594 160.410156 35.293781 -9.288308 -9.886006 -21.777342 7.646485 4.981768 51.063168 8.107644 2.471410 -31.210939 -4.765625 -6.152345 2.000000 -2.000000 0.000000 -82.109375 -12.109376 4.499905 -46.540077 -2.072287 -1.870384 -26.857489 41.551807 -35.281258 -2.000000 2.000000 0.000000 90.458984 -20.654322 -51.835968 126.576248 -1.908897 -3.050550 5.007261 -66.024231 -6.378362 1.276245 15.599413 22.014008 11.234635 -4.744729 -1.129445 -4.886385 4.685912 -10.506001 -5.310347 -6.509884 -9.880676 11.895404 5.103810 0.716567 -1.537914 -0.513832 3.251073 
2.102760 52.506439 4.619442 -4.580078 0.693369 158.848038 36.429546 -9.138647 -10.510490 -21.445314 7.109375 4.775391 51.063168 8.107644 2.471410 -31.064455 -5.273437 -4.941408 2.000000 -2.000000 0.000000 -82.451172 -13.876954 5.097657 -46.551033 -2.251185 -1.918593 -30.274113 40.111916 -39.375355 -2.000000 2.000000 0.000000 93.291016 -21.972656 -55.107418 128.161972 -1.979002 -3.191496 17.540539 -66.106598 -13.227812 1.043510 16.287043 23.791740 11.394209 -4.742315 -1.151451 -4.823253 4.424830 -10.245925 -6.577450 -5.785613 -8.443767 12.076914 5.066897 1.205128 -1.136090 -0.743821 2.907131 
2.276232 52.490681 5.171356 -4.941407 0.683594 157.246094 37.547939 -8.883214 -11.279589 -20.927736 6.738282 4.433594 51.063168 8.107644 2.471410 -31.113283 -6.083984 -3.652344 2.000000 -2.000000 0.000000 -83.203125 -15.566406 5.993475 -46.540077 -2.072287 -1.870384 -33.340313 39.041420 -42.740482 -2.000000 2.000000 0.000000 96.005859 -23.320311 -57.998047 129.562668 -2.019523 -2.998276 30.686968 -65.589233 -20.825327 0.672860 17.068407 25.916365 11.725240 -4.732202 -1.186853 -4.519227 4.108191 -10.094585 -7.805595 -5.062742 -6.516183 12.080125 5.058389 1.214971 -0.721625 -1.345042 3.438097 
2.448361 52.451286 5.737225 -5.283203 0.683594 155.673950 38.680454 -8.839138 -12.015808 -20.410158 6.201172 4.238281 51.063168 8.107644 2.471410 -31.699223 -7.402343 -1.601563 2.000000 -2.000000 0.000000 -84.003906 -17.109377 6.533203 -46.364273 -2.082036 -1.869814 -35.431671 37.483372 -46.000050 -2.000000 2.000000 0.000000 97.617188 -25.019529 -58.085938 129.738724 -2.018959 -3.008022 39.732189 -65.196327 -26.007637 0.634473 17.773649 27.885624 11.907599 -4.907369 -1.236165 -4.481604 3.863184 -10.039040 -9.007407 -4.361937 -4.206242 12.259801 5.136664 0.535271 -0.459385 -1.401352 3.416399 
2.611199 52.396145 6.284443 -5.634765 0.683594 154.082153 39.786343 -8.669550 -12.642831 -20.078125 5.839844 4.043963 51.063168 8.107644 2.471410 -32.841797 -9.345703 1.043336 2.000000 -2.000000 0.000000 -85.273438 -18.378906 6.793796 -45.836102 -2.099826 -1.839437 -37.630756 36.460819 -49.120415 -2.000000 2.000000 0.000000 97.382805 -27.333982 -55.771481 129.036758 -1.987455 -3.045313 45.728306 -65.289841 -30.132996 -0.121327 18.439066 29.919220 12.415134 -4.711936 -1.230632 -4.292280 3.398044 -9.937451 -10.275058 -3.746864 -2.678080 12.250415 5.222165 1.077660 -0.167330 -2.022687 3.890952 
2.755013 52.356758 6.844886 -6.162109 0.507813 152.519562 40.900753 -8.382247 -13.419026 -19.560547 5.302734 3.838793 51.063168 8.107644 2.471410 -34.335941 -11.484375 4.140624 2.000000 -2.000000 0.000000 -86.845703 -19.609375 6.601562 -45.307751 -2.078049 -1.801596 -39.275646 36.114197 -51.908264 -2.000000 2.000000 0.000000 95.869141 -29.892578 -51.928692 127.627441 -2.013159 -2.939239 51.898540 -65.417122 -34.752178 -0.539095 18.853596 31.991325 12.787027 -4.692874 -1.258426 -4.453986 3.327694 -9.935593 -11.516100 -2.849509 -0.639228 12.259369 5.287613 0.928501 -0.125019 -2.158390 3.829347 
2.902228 52.309486 7.375428 -6.689453 0.507822 151.104080 42.019485 -8.317986 -14.185494 -19.218750 4.951172 3.447266 51.063168 8.107644 2.471410 -36.376957 -13.623045 7.460938 2.000000 -2.000000 0.000000 -88.544922 -20.498047 6.090332 -44.258930 -2.402674 -1.665265 -40.112556 36.030247 -54.210220 -2.000000 2.000000 0.000000 93.935547 -32.246094 -47.929691 126.247086 -1.651161 -2.771919 57.562641 -65.391121 -39.221855 -0.948170 19.647860 33.712669 13.129985 -4.693400 -1.275938 -4.064421 2.844070 -9.659637 -12.668996 -1.883986 0.830860 11.549152 5.252178 1.186547 1.088703 -2.321460 4.463807 
3.029877 52.222824 7.894340 -7.402343 0.166016 149.736359 43.123287 -8.131375 -14.834019 -18.710938 4.414063 3.212891 51.063168 8.107644 2.471410 -38.779301 -15.634764 10.732421 2.000000 -2.000000 0.000000 -90.312500 -21.542971 5.728836 -43.212372 -2.428498 -1.604669 -41.538616 35.765713 -57.013645 -2.000000 2.000000 0.000000 91.142578 -34.951172 -42.744141 124.489937 -1.581786 -2.787452 61.675735 -65.568542 -43.009186 -1.914286 20.243862 35.516483 13.480705 -4.634837 -1.317581 -4.248109 2.754004 -9.062872 -13.909030 -1.142491 2.997488 11.373320 5.259429 1.191793 1.526156 -3.056484 4.698084 
